#!OML:ASF G:\JayActor3\Patient Classification 1\Patient 1\Session 2\male.ASF
:FULLY-SPECIFIED
:DEGREES
2048
root 5.18591 17.3866 -4.90799 535.758 -8.5767 171.272
lowerback 3.58471 8.27711 5.50532
upperback 2.22158 11.0755 -4.45632
thorax 2.27043 5.66375 -7.6872
lowerneck -6.5456 11.4302 3.95248
upperneck 23.6471 14.2023 1.19104
head 8.64747 6.80875 1.04532
rclavicle 2.3045e-014 -1.96797e-014
rhumerus -16.8098 40.4589 -74.5171
rradius 66.6656
rwrist -4.14705
rhand -27.6041 11.4328
rfingers 7.12502
rthumb -1.00351 -18.5446
lclavicle 2.3045e-014 -1.96797e-014
lhumerus -44.3277 -33.2145 61.1225
lradius 68.433
lwrist 22.0822
lhand -17.6704 15.5136
lfingers 7.12502
lthumb 8.58844 45.3189
rfemur -17.178 13.4789 11.1894
rtibia 46.5141
rfoot 15.9778 6.30029
rtoes 35.3546
lfemur -11.3142 -14.0762 -15.218
ltibia 40.2009
lfoot 19.6594 -12.2129
ltoes -6.27927
2049
root 5.35022 17.4009 -4.84117 536.043 -8.1391 171.227
lowerback 3.49859 8.14348 5.36506
upperback 2.21168 10.8881 -4.47109
thorax 2.25007 5.56478 -7.62364
lowerneck -6.61468 11.5104 3.96646
upperneck 23.4408 14.3538 1.05137
head 8.60382 6.8765 1.01177
rclavicle -1.43498e-013 5.02304e-014
rhumerus -16.6816 41.7479 -74.0402
rradius 68.5471
rwrist -4.18582
rhand -27.5104 11.3565
rfingers 7.12502
rthumb -0.913084 -18.6213
lclavicle -1.43498e-013 5.02304e-014
lhumerus -43.7595 -33.7245 60.7382
lradius 69.2203
lwrist 21.9767
lhand -17.4945 15.4737
lfingers 7.12502
lthumb 8.75817 45.2719
rfemur -17.7562 13.7484 11.6821
rtibia 46.3212
rfoot 15.76 5.58447
rtoes 36.2984
lfemur -11.6929 -13.7512 -16.1987
ltibia 42.0184
lfoot 19.4854 -14.368
ltoes -5.67866
2050
root 5.51423 17.4102 -4.77032 536.334 -7.70632 171.221
lowerback 3.41903 7.98701 5.24787
upperback 2.19366 10.6721 -4.47324
thorax 2.21521 5.45158 -7.56215
lowerneck -6.67309 11.5873 3.97268
upperneck 23.2366 14.4959 0.93038
head 8.55701 6.94082 0.983752
rclavicle 7.62632e-014 1.73937e-016
rhumerus -16.3775 43.0671 -73.3235
rradius 70.3541
rwrist -4.17861
rhand -27.3869 11.2964
rfingers 7.12502
rthumb -0.793729 -18.6819
lclavicle 7.62632e-014 1.73937e-016
lhumerus -43.0033 -34.2951 60.2273
lradius 69.9717
lwrist 21.7837
lhand -17.3047 15.4396
lfingers 7.12502
lthumb 8.94134 45.2302
rfemur -18.3985 13.8948 12.2166
rtibia 46.2031
rfoot 15.561 4.7858
rtoes 37.2959
lfemur -12.0071 -13.3046 -17.2841
ltibia 43.759
lfoot 19.4588 -16.1449
ltoes -5.14828
2051
root 5.67959 17.4155 -4.69636 536.624 -7.25993 171.261
lowerback 3.34732 7.80939 5.13751
upperback 2.17298 10.4293 -4.4547
thorax 2.16661 5.32461 -7.48508
lowerneck -6.72636 11.665 3.97259
upperneck 23.0473 14.6351 0.822891
head 8.51294 7.00378 0.960835
rclavicle -2.36479e-014 4.18939e-014
rhumerus -15.799 44.4086 -72.3147
rradius 72.0511
rwrist -4.162
rhand -27.2726 11.2288
rfingers 7.12502
rthumb -0.683399 -18.7499
lclavicle -2.36479e-014 4.18939e-014
lhumerus -42.0857 -34.8529 59.5681
lradius 70.6624
lwrist 21.5443
lhand -17.2032 15.3784
lfingers 7.12502
lthumb 9.03923 45.1647
rfemur -19.1014 13.8975 12.8087
rtibia 46.1576
rfoot 15.4225 3.92414
rtoes 38.2929
lfemur -12.2009 -12.7472 -18.4442
ltibia 45.2625
lfoot 19.5297 -17.4411
ltoes -4.60896
2052
root 5.84783 17.4178 -4.6202 536.909 -6.77143 171.351
lowerback 3.28778 7.6168 5.02254
upperback 2.15032 10.1675 -4.41125
thorax 2.10142 5.18744 -7.38187
lowerneck -6.77665 11.7481 3.97041
upperneck 22.8801 14.7781 0.724057
head 8.47533 7.06804 0.941943
rclavicle -5.43718e-014 5.13858e-014
rhumerus -14.859 45.7562 -70.9656
rradius 73.6114
rwrist -4.16222
rhand -27.1723 11.1698
rfingers 7.12502
rthumb -0.586535 -18.8091
lclavicle -5.43718e-014 5.13858e-014
lhumerus -41.0409 -35.3574 58.7508
lradius 71.2686
lwrist 21.3534
lhand -17.2311 15.2938
lfingers 7.12502
lthumb 9.01237 45.0813
rfemur -19.8632 13.7494 13.4753
rtibia 46.1794
rfoot 15.3811 3.01542
rtoes 39.2318
lfemur -12.2318 -12.103 -19.6418
ltibia 46.3746
lfoot 19.7179 -18.2979
ltoes -3.93695
2053
root 6.02006 17.4175 -4.54204 537.199 -6.2167 171.472
lowerback 3.24679 7.41591 4.868
upperback 2.12076 9.89417 -4.34913
thorax 2.00782 5.04252 -7.24087
lowerneck -6.82628 11.8382 3.97093
upperneck 22.7389 14.9266 0.630461
head 8.4466 7.13431 0.925802
rclavicle -1.32763e-013 1.45113e-014
rhumerus -13.4752 47.0925 -69.2314
rradius 75.0129
rwrist -4.19215
rhand -27.0958 11.1141
rfingers 7.12502
rthumb -0.512628 -18.865
lclavicle -1.32763e-013 1.45113e-014
lhumerus -39.9123 -35.7956 57.7768
lradius 71.7684
lwrist 21.3004
lhand -17.3996 15.2078
lfingers 7.12502
lthumb 8.84975 45.0023
rfemur -20.694 13.4298 14.2023
rtibia 46.2662
rfoot 15.4879 2.07776
rtoes 40.0977
lfemur -12.0911 -11.388 -20.8613
ltibia 46.9748
lfoot 20.048 -18.8142
ltoes -3.16766
2054
root 6.19594 17.4143 -4.46236 537.503 -5.56009 171.609
lowerback 3.21854 7.21829 4.66581
upperback 2.08657 9.62392 -4.27976
thorax 1.89555 4.89744 -7.06758
lowerneck -6.89275 11.9339 3.98897
upperneck 22.6262 15.0788 0.533622
head 8.43267 7.20204 0.908848
rclavicle -1.38668e-014 3.33958e-014
rhumerus -11.5724 48.3831 -67.063
rradius 76.2522
rwrist -4.26497
rhand -27.0258 11.0791
rfingers 7.12502
rthumb -0.444991 -18.9001
lclavicle -1.38668e-014 3.33958e-014
lhumerus -38.7185 -36.1752 56.6368
lradius 72.1368
lwrist 21.4474
lhand -17.663 15.1369
lfingers 7.12502
lthumb 8.5956 44.9419
rfemur -21.6077 12.9205 14.9734
rtibia 46.4193
rfoot 15.7916 1.11779
rtoes 40.9117
lfemur -11.7856 -10.6027 -22.0903
ltibia 46.992
lfoot 20.5681 -19.0035
ltoes -2.14486
2055
root 6.37502 17.4069 -4.38067 537.832 -4.78091 171.747
lowerback 3.207 7.02999 4.40265
upperback 2.04261 9.36413 -4.21165
thorax 1.75825 4.75549 -6.86408
lowerneck -6.98334 12.0333 4.02358
upperneck 22.5382 15.2316 0.436803
head 8.43315 7.27016 0.892379
rclavicle 9.15745e-014 -2.43511e-014
rhumerus -9.10394 49.5954 -64.4215
rradius 77.3385
rwrist -4.39321
rhand -26.9488 11.0713
rfingers 7.12502
rthumb -0.370648 -18.9081
lclavicle 9.15745e-014 -2.43511e-014
lhumerus -37.495 -36.5155 55.3393
lradius 72.3611
lwrist 21.7872
lhand -17.9423 15.0899
lfingers 7.12502
lthumb 8.32604 44.9058
rfemur -22.6205 12.2196 15.7761
rtibia 46.6437
rfoot 16.3187 0.136075
rtoes 41.7027
lfemur -11.3496 -9.72712 -23.3136
ltibia 46.4118
lfoot 21.2255 -18.8638
ltoes -0.835069
2056
root 6.55614 17.3945 -4.29755 538.193 -3.85733 171.867
lowerback 3.20438 6.86358 4.07286
upperback 1.99369 9.13048 -4.15724
thorax 1.60957 4.62509 -6.63817
lowerneck -7.11217 12.1257 4.0787
upperneck 22.4638 15.3704 0.340576
head 8.44678 7.33271 0.875218
rclavicle -1.83441e-014 4.57205e-014
rhumerus -6.0569 50.6757 -61.2788
rradius 78.3034
rwrist -4.59519
rhand -26.8641 11.0826
rfingers 7.12502
rthumb -0.288838 -18.897
lclavicle -1.83441e-014 4.57205e-014
lhumerus -36.2468 -36.8409 53.8844
lradius 72.4243
lwrist 22.227
lhand -18.1389 15.0547
lfingers 7.12502
lthumb 8.13625 44.8781
rfemur -23.7383 11.3087 16.5871
rtibia 46.946
rfoot 17.1075 -0.837363
rtoes 42.4707
lfemur -10.8168 -8.75095 -24.5338
ltibia 45.2642
lfoot 21.9008 -18.3913
ltoes 0.803267
2057
root 6.73841 17.3764 -4.21327 538.591 -2.78925 171.961
lowerback 3.20032 6.72536 3.67073
upperback 1.94585 8.93048 -4.12123
thorax 1.46267 4.51045 -6.38975
lowerneck -7.28228 12.1975 4.15257
upperneck 22.3806 15.4778 0.243236
head 8.46606 7.38226 0.854732
rclavicle 2.78609e-014 5.26779e-015
rhumerus -2.44473 51.566 -57.6156
rradius 79.1817
rwrist -4.88275
rhand -26.7763 11.0968
rfingers 7.12502
rthumb -0.20401 -18.8829
lclavicle 2.78609e-014 5.26779e-015
lhumerus -34.9796 -37.1683 52.2864
lradius 72.3153
lwrist 22.6543
lhand -18.1943 15.0082
lfingers 7.12502
lthumb 8.08285 44.8336
rfemur -24.965 10.1836 17.3985
rtibia 47.3327
rfoot 18.1312 -1.78178
rtoes 43.1707
lfemur -10.2434 -7.67349 -25.7414
ltibia 43.6283
lfoot 22.4983 -17.63
ltoes 2.54548
